<?xml version="1.0" encoding="UTF-8" standalone="no"?>
<!-- Created with Inkscape (http://www.inkscape.org/) -->

<svg
   xmlns:dc="http://purl.org/dc/elements/1.1/"
   xmlns:cc="http://creativecommons.org/ns#"
   xmlns:rdf="http://www.w3.org/1999/02/22-rdf-syntax-ns#"
   xmlns:svg="http://www.w3.org/2000/svg"
   xmlns="http://www.w3.org/2000/svg"
   xmlns:sodipodi="http://sodipodi.sourceforge.net/DTD/sodipodi-0.dtd"
   xmlns:inkscape="http://www.inkscape.org/namespaces/inkscape"
   width="1024"
   height="500"
   viewBox="0 0 270.93333 132.29167"
   version="1.1"
   id="svg8"
   inkscape:version="0.92.2 5c3e80d, 2017-08-06"
   sodipodi:docname="feature graphic.svg">
  <defs
     id="defs2" />
  <sodipodi:namedview
     id="base"
     pagecolor="#ffffff"
     bordercolor="#666666"
     borderopacity="1.0"
     inkscape:pageopacity="0.0"
     inkscape:pageshadow="2"
     inkscape:zoom="1.646"
     inkscape:cx="512"
     inkscape:cy="250"
     inkscape:document-units="mm"
     inkscape:current-layer="layer1"
     showgrid="false"
     units="px"
     inkscape:window-width="1920"
     inkscape:window-height="1036"
     inkscape:window-x="0"
     inkscape:window-y="0"
     inkscape:window-maximized="1" />
  <metadata
     id="metadata5">
    <rdf:RDF>
      <cc:Work
         rdf:about="">
        <dc:format>image/svg+xml</dc:format>
        <dc:type
           rdf:resource="http://purl.org/dc/dcmitype/StillImage" />
        <dc:title></dc:title>
      </cc:Work>
    </rdf:RDF>
  </metadata>
  <g
     inkscape:label="Layer 1"
     inkscape:groupmode="layer"
     id="layer1"
     transform="translate(0,-164.70832)">
    <rect
       style="fill:#00c3e3;fill-opacity:1;stroke-width:0.06917911"
       y="164.70831"
       x="135.46666"
       height="132.29167"
       width="135.46666"
       id="rect910" />
    <rect
       id="rect908"
       width="135.46666"
       height="132.29167"
       x="0"
       y="164.70831"
       style="fill:#ff4554;fill-opacity:1;stroke-width:0.06917911" />
    <g
       transform="matrix(0.21917132,0,0,0.21912605,40.223365,163.25604)"
       id="g3755">
      <path
         style="fill:#000000;stroke:none;stroke-width:0.1"
         inkscape:connector-curvature="0"
         id="path4"
         d="m 296.5,68.6 c -48.1,8.6 -86.8,44.2 -99,91 -4.4,16.9 -4.7,26.8 -4.2,157.9 0.3,120.4 0.4,123.2 2.4,132.5 11.1,50.1 46.7,85.8 97.3,97.6 6.6,1.5 15,1.8 69.1,2.1 56,0.4 61.8,0.3 63.3,-1.2 1.5,-1.5 1.6,-20.8 1.6,-239.6 0,-162.2 -0.3,-238.6 -1,-240 -1,-1.8 -2.7,-1.9 -61.3,-1.8 -47.6,0.1 -61.9,0.4 -68.2,1.5 z m 90.5,240 v 202.6 l -40.7,-0.5 c -37.5,-0.4 -41.5,-0.6 -49,-2.5 -32.2,-8.3 -56.1,-33.1 -62.8,-65.4 -2.2,-10.1 -2.2,-258.9 -0.1,-268.8 6,-28.1 25.5,-51.4 51.8,-61.9 13.2,-5.3 19.3,-5.9 62.1,-6 L 387,106 Z" />
      <path
         style="fill:#000000;stroke:none;stroke-width:0.1"
         inkscape:connector-curvature="0"
         id="path6"
         d="m 305.1,167.1 c -6.3,1.2 -15.9,6 -21,10.5 -10.5,9.1 -15.7,22 -14.9,37.2 0.4,7.9 0.9,10 4.1,16.4 4.7,9.7 11.8,16.8 21.5,21.6 6.7,3.3 8.4,3.7 17.1,4 7.9,0.3 10.7,0 16,-1.8 21.7,-7.3 34.8,-28.4 31.1,-50 -4.3,-25.7 -28.7,-42.9 -53.9,-37.9 z" />
      <path
         style="fill:#000000;stroke:none;stroke-width:0.1"
         inkscape:connector-curvature="0"
         id="path8"
         d="m 475.7,67.7 c -0.4,0.3 -0.7,108.7 -0.7,240.9 0,218.1 0.1,240.2 1.6,240.8 2.7,1 80.3,0.6 89.9,-0.4 40.6,-4.6 76.4,-29.3 95.9,-66 2.5,-4.7 5.8,-12.6 7.5,-17.5 C 676.2,446.7 676,451.7 676,308 676,193.3 675.8,176.2 674.4,168.9 664.5,116.8 624.8,77.5 572.6,68.5 565.6,67.3 554.8,67 520,67 c -24,0 -44,0.3 -44.3,0.7 z m 106.8,217.8 c 15.6,4.1 28.4,16 33.6,31.2 3.3,9.4 3.2,23.2 -0.1,31.8 -6.1,15.8 -18.1,26.9 -33.5,31 -25,6.5 -51.6,-8.6 -58.9,-33.4 -2.2,-7.6 -2.1,-20.4 0.4,-28.2 7.5,-24.5 33.5,-38.9 58.5,-32.4 z" />
    </g>
  </g>
</svg>
